<svg width="18" height="30" fill="none" xmlns="http://www.w3.org/2000/svg"><path d="M12.3 7.742c0-1.767-1.49-3.205-3.32-3.205-1.83 0-3.321 1.438-3.321 3.205 0 1.766 1.49 3.204 3.32 3.204 1.832 0 3.321-1.438 3.321-3.204zm4.7 0c0 4.268-3.596 7.74-8.02 7.74-4.423 0-8.02-3.472-8.02-7.74C.96 3.472 4.557 0 8.98 0 13.404 0 17 3.473 17 7.742zm-.098 12.197a15.332 15.332 0 01-4.657 1.861l4.483 4.329a2.21 2.21 0 010 3.207 2.407 2.407 0 01-3.32 0l-4.409-4.253-4.404 4.253A2.39 2.39 0 012.932 30c-.6 0-1.201-.222-1.66-.664a2.213 2.213 0 01-.001-3.207L5.754 21.8a15.355 15.355 0 01-4.657-1.861C0 19.271-.33 17.872.362 16.811c.69-1.062 2.14-1.38 3.239-.713 3.283 1.994 7.513 1.994 10.798 0 1.1-.668 2.549-.348 3.24.713.691 1.06.36 2.46-.737 3.128z" fill="#fff"/></svg>