<svg width="32" height="18" fill="none" xmlns="http://www.w3.org/2000/svg"><path d="M17.57 17.845s.577-.063.873-.375c.27-.285.261-.825.261-.825s-.036-2.518 1.155-2.89c1.174-.365 2.681 2.435 4.28 3.512 1.209.815 2.126.637 2.126.637l4.274-.059s2.236-.135 1.176-1.86c-.088-.142-.618-1.277-3.177-3.61-2.681-2.44-2.321-2.046.906-6.269 1.966-2.572 2.751-4.142 2.506-4.813C31.717.65 30.27.82 30.27.82l-4.81.03s-.358-.048-.622.107c-.259.152-.426.507-.426.507s-.76 1.99-1.776 3.682c-2.143 3.57-3 3.76-3.35 3.539-.815-.518-.612-2.078-.612-3.185 0-3.462.536-4.904-1.04-5.277-.523-.125-.908-.206-2.247-.22-1.716-.017-3.169.006-3.992.4-.548.264-.97.85-.712.884.318.042 1.037.19 1.42.7.492.66.475 2.138.475 2.138s.283 4.074-.662 4.58c-.648.347-1.537-.361-3.448-3.602C7.49 3.444 6.751 1.61 6.751 1.61s-.142-.343-.397-.527c-.309-.223-.74-.292-.74-.292l-4.57.03s-.688.018-.94.311c-.224.26-.017.799-.017.799s3.58 8.22 7.633 12.364c3.717 3.798 7.937 3.55 7.937 3.55h1.912z" fill="#fff"/></svg>