<?xml version="1.0" encoding="utf-8"?><svg xmlns="http://www.w3.org/2000/svg" xmlns:xlink="http://www.w3.org/1999/xlink"><symbol viewBox="0 0 55 8" fill="none" id="Arrow" xmlns="http://www.w3.org/2000/svg"><path d="M54.354 4.354a.5.5 0 000-.708L51.172.464a.5.5 0 10-.707.708L53.293 4l-2.828 2.828a.5.5 0 10.707.708l3.182-3.182zM0 4.5h54v-1H0v1z" fill="#fff"/></symbol><symbol viewBox="0 0 58 44" fill="none" id="checked" xmlns="http://www.w3.org/2000/svg"><path stroke="#fff" stroke-width="2" d="M22.169 42.491l35.069-41.14M.607 24.81l22.931 17.535"/></symbol><symbol fill="none" viewBox="0 0 124 88" id="mail" xmlns="http://www.w3.org/2000/svg"><path d="M115.375 0H8.875A8.875 8.875 0 000 8.875v71a8.875 8.875 0 008.875 8.875h106.5a8.877 8.877 0 008.875-8.875v-71A8.876 8.876 0 00115.375 0zm-9.763 8.875L62.125 38.961 18.638 8.875h86.974zm-96.737 71V12.913l50.72 35.1a4.437 4.437 0 005.06 0l50.72-35.1v66.962H8.875z" fill="#fff"/></symbol></svg>